<svg xmlns="http://www.w3.org/2000/svg" xmlns:xlink="http://www.w3.org/1999/xlink" viewBox="300 320 420 350" width="60" height="60" xmlns:v="https://vecta.io/nano"><style><![CDATA[.B{fill:#fff}]]></style><g transform="matrix(.4655 0 0 .4655 119.1618 463.2229)" class="B"><use href="#B" xlink:href="#B" transform="matrix(25.0749 -5.8791 5.8791 25.0749 239.2504 -397.4768)"/><use href="#D" xlink:href="#D" transform="matrix(14.6356 0 0 14.6356 776.6319 -24.1881)"/><g transform="matrix(7.392 0 0 7.392 974.7657 201.8813)"><use href="#F" xlink:href="#F"/><use href="#H" xlink:href="#H"/></g><path d="M667.807 104.287l.888.977.738.59 1.124.561 1.98.565 2.453.426 3.136.241h0l3.521.251 2.924.122h31.099l2.1.424.179.121.165.039.431.363.94.634.244.361.258.217.38.506.413.777.252.374.033.162.103.194.288 1.744-.424 2.1-.204.302-.062.241-.339.354-.551.819-.645.434-.311.326-.886.554-1.256.914-.443.229.405.601.424 2.1-.424 2.1-1.156 1.715-.25.169.009.048-.819 2.859-2.163 1.967-1.791.896-.156.038-.096.081-2.307 1.027-.311.066-.432.205-2.426.694-2.13.898-.083.017-.042.033-2.565 1.028-.339.066-.392.172-3.084.772-.962.121-.191.045-3.632.129-.203.004h-3.381l-.193-.003-3.503-.125-2.961.123-.236.005h-3.512l-.192-.003-3.547-.127h-9.006l-2.1-.424-.164-.11-.149-.036-1.591-.794-.185-.169-.231-.066-.787-.866-.93-.852-.072-.251-.178-.195-.506-1.01-.039-.165-.121-.178-.424-2.101h0 0l.277-1.706.532-1.598.006-.012.002-.012.176-.328.586-1.115.032-.031.019-.036 1.7-2.223.36-.298.319-.433 2.415-2.161 2.412-2.285.626-.404.282-.29 1.308-.797-1.194-.34-.585-.28-.307-.073-2.112-1.054-.223-.205-.704-.394-1.311-1.049-1.345-1.682-.1-.11-.02-.04-.003-.004-.001-.003-.222-.442-.584-2.444.424-2.1 1.157-1.715 1.715-1.157 2.1-.424z"/></g><defs><path id="A" d="M14.89-23.71l-.07 2.64-.07 4.14.17 7.94.27 5.29a2.87 2.87 0 0 0 .03.38l.06.38.15 1.24c0 .35-.2.66-.61.91-.41.26-.74.38-.99.38-.4 0-.66-.14-.78-.42-.11-.28-.17-.61-.17-1.01l.1-3.93.04-1.88-.04-2.47.02-2.29c-.8 3.57-1.95 6.61-3.45 9.12C8.04-.78 6.38.48 4.55.48c-.89 0-1.62-.4-2.21-1.2s-.88-1.92-.88-3.36c0-1.84.61-3.83 1.84-5.97s2.65-3.99 4.25-5.56c1.6-1.56 2.82-2.34 3.66-2.34.96 0 1.43.34 1.43 1.02 0 .37-.11.78-.35 1.23a8.25 8.25 0 0 1-.8 1.27c-.3.39-.53.59-.68.59a.73.73 0 0 1-.37-.12c-.14-.09-.21-.21-.21-.39 0-.15.05-.37.17-.64l.17-.48c0-.05.01-.06.03-.02s.04.05.07.05c-.38 0-1.16.63-2.36 1.89-1.19 1.26-2.26 2.77-3.22 4.52-.95 1.75-1.42 3.36-1.42 4.85 0 .51.09.96.28 1.35.18.39.46.59.84.59 1.51 0 2.95-1.37 4.33-4.1 1.39-2.74 2.59-5.86 3.62-9.38l-.06-2.8-.11-4.02c0-1.38.06-2.38.18-2.98.05-.26.13-.47.22-.63.1-.16.31-.23.62-.23.3 0 .6.1.9.3.31.19.46.43.46.7z"/><use id="B" href="#A" xlink:href="#A" y="30.94"/><path id="C" d="M16.45-22.17c0 .42-.07.85-.2 1.27l-.71 1.97-.95 2.55c-.99 2.9-1.74 6.12-2.27 9.67l-.19 1.84-.1 1.71c0 .22.08.45.26.7.16.25.25.44.25.56 0 .22-.16.52-.49.91-.32.38-.69.74-1.09 1.07-.41.33-.76.5-1.07.5-.68 0-1.02-.31-1.02-.92 0-.52.28-2.25.86-5.19l1.42-6.3a2.79 2.79 0 0 1-.95 1.39c-.47.36-1.06.55-1.77.55-1.04 0-2.04-.76-3.01-2.26s-1.92-3.26-2.85-5.29l-.26-.52a15.76 15.76 0 0 0-1.03-1.85c-.34-.5-.5-.82-.5-.96a.51.51 0 0 1 .39-.52 2.38 2.38 0 0 1 .76-.13c.91 0 1.68.78 2.32 2.33.82 1.96 1.62 3.62 2.38 4.96.77 1.35 1.51 2.03 2.24 2.03.47 0 .9-.17 1.28-.52.39-.34.71-.76.97-1.25.23-.46.53-1.13.88-2.02l.83-2.28 1.16-3.68c.1-.45.22-.8.35-1.07.12-.27.36-.4.72-.4.32 0 .64.11.94.33.3.23.45.5.45.82z"/><use id="D" href="#C" xlink:href="#C" y="30.94"/><path id="E" d="M20.02-9.66c0 1.18-.36 2.35-1.07 3.52s-1.76 2.26-3.14 3.25c-1.39 1-3.01 1.79-4.87 2.38a4.8 4.8 0 0 0 .44 1.12c.08.16.25.36.5.59.26.23.39.41.39.53 0 .32-.17.61-.5.87-.34.26-.68.39-1.03.39-.54 0-1-.31-1.37-.92-.21-.36-.37-.76-.49-1.21L8.69 0c.18 0 .22.01.11.02-.12.01-.3.01-.54.01C6.43.03 5.01-.74 4-2.27 2.98-3.81 2.48-5.75 2.48-8.09c0-3 .78-5.86 2.36-8.56 1.58-2.71 3.69-4.82 6.32-6.33.22-.16.46-.28.74-.36s.51-.12.67-.12c.3 0 .59.1.88.3.28.21.42.48.42.82 0 .56-.36 1.05-1.06 1.46-2.89 1.66-4.95 3.54-6.18 5.62s-1.84 4.5-1.84 7.27c0 1.61.33 2.96.98 4.05.66 1.08 1.63 1.63 2.92 1.63.19-2.09.66-3.97 1.41-5.64.76-1.66 1.7-2.94 2.83-3.82s2.34-1.32 3.62-1.32c1.13 0 1.98.33 2.58.99.59.65.89 1.47.89 2.44zm-2.21.31c0-1-.45-1.5-1.36-1.5-1.33 0-2.51.74-3.52 2.23-1.02 1.48-1.69 3.49-2.02 6.04 1.03-.3 2.11-.84 3.22-1.62 1.12-.78 2.02-1.64 2.68-2.58.67-.94 1-1.79 1-2.57z"/><use id="F" href="#E" xlink:href="#E" y="30.94"/><path id="G" d="M18.73-10.34c0 2.05-.53 4.09-1.59 6.14-1.05 2.04-2.45 3.72-4.19 5.04S9.4 2.82 7.51 2.82c-1.75 0-3.1-.65-4.03-1.95-.94-1.3-1.41-2.96-1.41-4.98 0-2.37.29-4.76.87-7.16.58-2.41 1.36-4.43 2.32-6.07-.04 0-.17-.1-.4-.29-.23-.2-.34-.45-.34-.76 0-.4.2-.74.61-1.03a3.48 3.48 0 0 1 1.3-.6l.21-.27c.14-.19.37-.28.7-.28.27 0 .53.05.8.16.27.1.41.16.41.18.48-.09 1.06-.14 1.75-.14 1.61 0 3.05.44 4.33 1.32 1.28.87 2.29 2.08 3.01 3.61.73 1.53 1.09 3.23 1.09 5.1zm-2.25.07c0-1.32-.28-2.55-.86-3.7-.58-1.14-1.33-2.04-2.27-2.69-.93-.66-1.91-.99-2.92-.99-.49 0-1.16.07-2.02.21l-.56.08c-.97 1.72-1.74 3.83-2.31 6.32-.57 2.48-.85 4.78-.85 6.89 0 1.38.25 2.49.76 3.33S6.74.44 7.81.44c1.3 0 2.62-.56 3.98-1.69 1.36-1.12 2.48-2.53 3.36-4.21.89-1.69 1.33-3.29 1.33-4.81z"/><use id="H" href="#G" xlink:href="#G" x="21.102" y="30.94"/></defs></svg>